<?xml version="1.0" encoding="UTF-8" standalone="no"?>
<svg
   xmlns:dc="http://purl.org/dc/elements/1.1/"
   xmlns:cc="http://creativecommons.org/ns#"
   xmlns:rdf="http://www.w3.org/1999/02/22-rdf-syntax-ns#"
   xmlns:svg="http://www.w3.org/2000/svg"
   xmlns="http://www.w3.org/2000/svg"
   xmlns:sodipodi="http://sodipodi.sourceforge.net/DTD/sodipodi-0.dtd"
   xmlns:inkscape="http://www.inkscape.org/namespaces/inkscape"
   version="1.1"
   id="Capa_1"
   x="0px"
   y="0px"
   viewBox="0 0 31.955 31.955"
   style="enable-background:new 0 0 31.955 31.955;"
   xml:space="preserve"
   sodipodi:docname="occupied.svg"
   inkscape:version="1.0.2 (e86c870879, 2021-01-15, custom)"><metadata
   id="metadata45"><rdf:RDF><cc:Work
       rdf:about=""><dc:format>image/svg+xml</dc:format><dc:type
         rdf:resource="http://purl.org/dc/dcmitype/StillImage" /></cc:Work></rdf:RDF></metadata><defs
   id="defs43" /><sodipodi:namedview
   pagecolor="#ffffff"
   bordercolor="#666666"
   borderopacity="1"
   objecttolerance="10"
   gridtolerance="10"
   guidetolerance="10"
   inkscape:pageopacity="0"
   inkscape:pageshadow="2"
   inkscape:window-width="1887"
   inkscape:window-height="1023"
   id="namedview41"
   showgrid="false"
   inkscape:object-paths="true"
   inkscape:snap-intersection-paths="true"
   inkscape:snap-smooth-nodes="true"
   inkscape:snap-midpoints="true"
   inkscape:snap-object-midpoints="true"
   inkscape:snap-center="true"
   inkscape:snap-text-baseline="true"
   inkscape:snap-page="true"
   inkscape:zoom="22.627417"
   inkscape:cx="16.545677"
   inkscape:cy="15.927134"
   inkscape:window-x="18"
   inkscape:window-y="1113"
   inkscape:window-maximized="0"
   inkscape:current-layer="Capa_1" />

<g
   id="g10">
</g>
<g
   id="g12">
</g>
<g
   id="g14">
</g>
<g
   id="g16">
</g>
<g
   id="g18">
</g>
<g
   id="g20">
</g>
<g
   id="g22">
</g>
<g
   id="g24">
</g>
<g
   id="g26">
</g>
<g
   id="g28">
</g>
<g
   id="g30">
</g>
<g
   id="g32">
</g>
<g
   id="g34">
</g>
<g
   id="g36">
</g>
<g
   id="g38">
</g>
<path
   id="path883"
   style="fill:#49df90;fill-opacity:1;stroke-width:1.79751"
   d="M 15.886818,9.8344966e-5 A 16.000424,16.000562 0 0 0 0,16.001039 16.000424,16.000562 0 0 0 15.999016,32 16.000424,16.000562 0 0 0 32,16.001039 16.000424,16.000562 0 0 0 15.999016,9.8344966e-5 a 16.000424,16.000562 0 0 0 -0.112198,0 z M 15.92422,8.6634817 a 7.3362177,7.3362799 0 0 1 0.0748,0 7.3362177,7.3362799 0 0 1 7.336163,7.3375573 7.3362177,7.3362799 0 0 1 -7.336163,7.335579 7.3362177,7.3362799 0 0 1 -7.3361633,-7.335579 7.3362177,7.3362799 0 0 1 7.2613643,-7.3375573 z"
   inkscape:export-xdpi="96"
   inkscape:export-ydpi="96" /></svg>
